<?xml version="1.0" encoding="UTF-8" standalone="no"?>
<svg
   xmlns:dc="http://purl.org/dc/elements/1.1/"
   xmlns:cc="http://creativecommons.org/ns#"
   xmlns:rdf="http://www.w3.org/1999/02/22-rdf-syntax-ns#"
   xmlns:svg="http://www.w3.org/2000/svg"
   xmlns="http://www.w3.org/2000/svg"
   xmlns:sodipodi="http://sodipodi.sourceforge.net/DTD/sodipodi-0.dtd"
   xmlns:inkscape="http://www.inkscape.org/namespaces/inkscape"
   version="1.1"
   width="150"
   height="170.95714"
   id="svg2"
   inkscape:version="0.91 r13725"
   sodipodi:docname="rad.svg">
  <title
     id="title4134">Readers Against DRM</title>
  <sodipodi:namedview
     pagecolor="#ffffff"
     bordercolor="#666666"
     borderopacity="1"
     objecttolerance="10"
     gridtolerance="10"
     guidetolerance="10"
     inkscape:pageopacity="0"
     inkscape:pageshadow="2"
     inkscape:window-width="811"
     inkscape:window-height="480"
     id="namedview6"
     showgrid="false"
     inkscape:zoom="1.380463"
     inkscape:cx="75"
     inkscape:cy="85.478569"
     inkscape:window-x="0"
     inkscape:window-y="0"
     inkscape:window-maximized="0"
     inkscape:current-layer="svg2" />
  <metadata
     id="metadata8">
    <rdf:RDF>
      <cc:Work
         rdf:about="">
        <dc:format>image/svg+xml</dc:format>
        <dc:type
           rdf:resource="http://purl.org/dc/dcmitype/StillImage" />
        <dc:title>Readers Against DRM</dc:title>
        <dc:date>03/09/2011</dc:date>
        <dc:creator>
          <cc:Agent>
            <dc:title>Nina Paley</dc:title>
          </cc:Agent>
        </dc:creator>
        <dc:rights>
          <cc:Agent>
            <dc:title></dc:title>
          </cc:Agent>
        </dc:rights>
        <dc:source>http://readersbillofrights.info/rad</dc:source>
        <dc:publisher>
          <cc:Agent>
            <dc:title>http://readersbillofrights.info/</dc:title>
          </cc:Agent>
        </dc:publisher>
        <dc:language>English</dc:language>
        <dc:subject>
          <rdf:Bag>
            <rdf:li>Readers Bill of Rights</rdf:li>
            <rdf:li>Against DRM</rdf:li>
          </rdf:Bag>
        </dc:subject>
        <cc:license
           rdf:resource="http://creativecommons.org/publicdomain/zero/1.0/" />
      </cc:Work>
      <cc:License
         rdf:about="http://creativecommons.org/publicdomain/zero/1.0/">
        <cc:permits
           rdf:resource="http://creativecommons.org/ns#Reproduction" />
        <cc:permits
           rdf:resource="http://creativecommons.org/ns#Distribution" />
        <cc:permits
           rdf:resource="http://creativecommons.org/ns#DerivativeWorks" />
      </cc:License>
    </rdf:RDF>
  </metadata>
  <defs
     id="defs6" />
  <path
     d="m 49.423243,170.68529 c -0.06303,-0.16433 -0.08849,-3.88078 -0.05649,-8.25878 l 0.05816,-7.95999 3.759385,-0.067 c 5.374371,-0.0957 7.014651,0.2998 9.058786,2.18402 1.783585,1.64406 2.759833,4.90999 2.34446,7.84311 -0.374842,2.64678 -1.793297,4.72571 -3.945454,5.78255 -1.253974,0.61578 -1.312083,0.62234 -6.185004,0.6982 -3.980912,0.062 -4.941004,0.0197 -5.033795,-0.2222 z m 8.656021,-3.86817 c 0.572147,-0.29099 1.023275,-0.75933 1.364828,-1.41697 0.443622,-0.85412 0.501337,-1.24426 0.442279,-2.98943 -0.05981,-1.76856 -0.141945,-2.11891 -0.690711,-2.94752 -0.725165,-1.09498 -1.687855,-1.56981 -3.519375,-1.7359 -1.974143,-0.179 -1.939182,-0.26387 -1.939182,4.70926 0,2.34688 0.06505,4.43659 0.144552,4.64377 0.12307,0.32071 0.382208,0.36145 1.743759,0.27407 0.971226,-0.0624 1.934823,-0.27331 2.45385,-0.53728 z m 9.248177,3.84686 c -0.05859,-0.15261 -0.0803,-3.85947 -0.0483,-8.23747 l 0.05816,-7.95999 4.201672,-0.0643 c 5.00456,-0.0765 5.7735,0.0765 7.11339,1.41641 2.06649,2.0665 2.07372,5.3025 0.016,7.18189 l -0.67508,0.61659 0.65749,0.74886 c 0.67149,0.76478 2.70023,5.1168 2.78989,5.98481 0.0477,0.46128 -0.0398,0.48262 -2.22608,0.54326 l -2.27566,0.0631 -0.45317,-1.05824 c -1.978156,-4.61948 -2.519485,-5.3705 -3.87093,-5.3705 l -0.744173,0 0,2.94116 c 0,1.99273 -0.08553,3.02675 -0.265362,3.20655 -0.373655,0.37365 -4.13386,0.36299 -4.277801,-0.0122 z m 7.290617,-9.48526 c 0.697457,-0.3178 1.109169,-1.45199 0.811381,-2.23521 -0.331178,-0.87108 -1.08304,-1.27047 -2.391766,-1.27047 l -1.167068,0 0,1.87971 0,1.87969 1.095298,0 c 0.60241,0 1.345885,-0.11414 1.652155,-0.25372 z m 9.076965,9.49361 c -0.0603,-0.1572 -0.0835,-3.86782 -0.0515,-8.24582 l 0.0581,-7.95999 1.87969,-0.0563 c 1.03384,-0.031 1.98597,0.0187 2.11586,0.11052 0.1299,0.0918 1.15297,1.38602 2.2735,2.87596 1.12053,1.48993 2.15866,2.70396 2.30694,2.69784 0.14829,-0.006 1.21499,-1.27491 2.37045,-2.81954 l 2.10084,-2.80841 2.10083,0 2.100827,0 0,8.18219 0,8.18218 -2.211397,0 -2.21141,0 -0.06,-4.36751 c -0.045,-3.27987 -0.12765,-4.36534 -0.33171,-4.35876 -0.14947,0.005 -1.01811,1.02483 -1.93032,2.26669 -0.98434,1.34007 -1.81264,2.25793 -2.03765,2.25793 -0.22504,0 -1.05598,-0.92112 -2.04478,-2.26669 -0.91613,-1.24668 -1.76344,-2.26669 -1.88292,-2.26669 -0.13285,0 -0.24051,1.69642 -0.27718,4.36752 l -0.06,4.36751 -2.04928,0.0637 c -1.51869,0.0472 -2.07768,-0.0109 -2.15897,-0.2222 z M 44.338634,149.6386 c -2.575186,-0.66978 -4.177402,-1.91349 -5.2365,-4.06482 -0.632818,-1.28545 -0.732391,-1.73217 -0.808512,-3.62738 -0.127123,-3.16511 0.435862,-4.90471 2.138263,-6.60711 1.873667,-1.87367 3.14074,-2.31107 6.671005,-2.30288 2.348976,0.005 2.996808,0.0875 4.312239,0.5458 l 1.547977,0.53939 0.06425,1.82441 c 0.07359,2.09117 -0.007,2.15928 -1.565736,1.32794 -0.795733,-0.42431 -1.271114,-0.49662 -3.271195,-0.49756 -2.215837,-8.7e-4 -2.388723,0.0326 -3.254494,0.63204 -1.878904,1.30104 -2.576527,4.07282 -1.53712,6.10726 0.769203,1.50556 1.893235,2.27912 3.478293,2.39377 0.723466,0.0524 1.573602,0.0303 1.889201,-0.0489 0.506514,-0.12712 0.565818,-0.24042 0.505635,-0.96584 -0.0646,-0.77829 -0.115058,-0.82769 -0.952762,-0.9324 l -0.884555,-0.11052 -0.06617,-1.52819 c -0.04646,-1.07302 0.01935,-1.58247 0.221135,-1.71045 0.371108,-0.2354 5.064064,-0.23834 5.434241,-0.004 0.214622,0.13622 0.267351,1.09699 0.221143,4.02969 l -0.06068,3.85083 -0.645025,0.30891 c -1.93553,0.92698 -6.189713,1.36245 -8.20059,0.83944 z m 60.102736,-0.1337 c -2.55856,-0.69336 -2.49568,-0.62409 -2.49568,-2.74922 0,-1.00928 0.0557,-1.89087 0.12402,-1.95908 0.0682,-0.0682 0.77205,0.21374 1.56406,0.62655 1.16265,0.60602 1.69151,0.7506 2.74569,0.7506 1.1565,0 1.34801,-0.0645 1.67622,-0.5655 0.35056,-0.53503 0.34712,-0.59762 -0.0639,-1.16099 -0.23895,-0.32751 -1.22044,-1.00864 -2.18111,-1.51362 -2.99344,-1.57351 -4.31624,-3.48042 -4.00245,-5.76978 0.45107,-3.29094 3.40377,-4.87404 7.47952,-4.01014 1.43004,0.3031 2.72814,0.93522 2.91373,1.41883 0.1932,0.50348 0.16596,2.81129 -0.0369,3.13046 -0.12181,0.19162 -0.58438,0.0548 -1.68178,-0.49756 -1.94697,-0.97991 -3.46713,-1.05886 -4.02396,-0.20902 -0.32965,0.50311 -0.33116,0.60029 -0.0168,1.08016 0.19003,0.29002 1.02247,0.90285 1.84984,1.36183 3.19624,1.77309 4.22729,2.83435 4.57104,4.70503 0.18266,0.99399 -0.20736,2.627 -0.86705,3.63036 -1.223,1.8601 -4.39564,2.58711 -7.55445,1.73109 z m -84.656748,-0.0643 c -0.114274,-0.29778 5.891288,-15.47802 6.334766,-16.01239 0.183266,-0.22082 0.890303,-0.30179 2.635291,-0.30179 l 2.384831,0 0.664751,1.60326 c 3.149913,7.59705 5.817823,14.60022 5.63262,14.78541 -0.117917,0.11788 -1.146496,0.18556 -2.285745,0.15033 l -2.071358,-0.0641 -0.58797,-1.54798 -0.587968,-1.54798 -3.255159,0 -3.255161,0 -0.594671,1.54798 -0.594671,1.54798 -2.154625,0.0633 c -1.610502,0.0473 -2.182478,-0.01 -2.264931,-0.22411 z m 10.73274,-6.45687 c 0,-0.62838 -1.606999,-4.77108 -1.850658,-4.7708 -0.228182,2.2e-4 -1.908727,4.26028 -1.908727,4.83847 0,0.16313 0.640626,0.24748 1.87969,0.24748 1.479479,0 1.879695,-0.0671 1.879695,-0.31515 z m 24.235205,6.53999 c -0.119088,-0.19269 5.95291,-15.6154 6.349591,-16.12781 0.160471,-0.20728 0.878531,-0.26666 2.674365,-0.22115 l 2.455,0.0623 3.131936,7.73993 c 1.722565,4.25695 3.140619,7.96742 3.151247,8.24548 0.019,0.49744 -0.01526,0.50455 -2.128913,0.44228 -2.405584,-0.0709 -2.183744,0.0859 -3.140567,-2.21941 l -0.435983,-1.05042 -3.081317,0 c -2.205557,0 -3.141046,0.0785 -3.291466,0.27642 -0.115576,0.15203 -0.390524,0.774 -0.610997,1.38213 -0.220481,0.60813 -0.498581,1.23009 -0.618015,1.38213 -0.250037,0.3183 -4.263555,0.39776 -4.454881,0.0882 z m 10.922032,-6.39071 c -0.01386,-0.56109 -1.77478,-4.80979 -1.993516,-4.80979 -0.219322,0 -1.971451,4.25564 -1.980291,4.80979 -0.0017,0.0912 0.892978,0.16587 1.987623,0.16587 1.094643,0 1.988415,-0.0746 1.986184,-0.16587 z m 8.953554,6.3095 c -0.06024,-0.15705 -0.08343,-3.86754 -0.05144,-8.24552 l 0.05816,-7.96 2.21141,0 2.21141,0 0,8.18218 0,8.1822 -2.15998,0.0633 c -1.607771,0.0472 -2.187983,-0.01 -2.269543,-0.2222 z m 8.13017,0.0121 c -0.20606,-0.20607 -0.27299,-2.15501 -0.27299,-7.95057 0,-4.22269 0.0604,-7.83502 0.13423,-8.0274 0.10829,-0.28217 0.50917,-0.34981 2.07375,-0.34981 l 1.93951,0 3.73119,4.36752 3.7312,4.36753 0.12266,-4.31223 c 0.0675,-2.37173 0.14212,-4.34073 0.16587,-4.37552 0.0238,-0.0348 1.01342,-0.0348 2.19929,0 l 2.15612,0.0633 0,8.18219 0,8.1822 -1.84585,0.0645 c -1.26163,0.0442 -1.9541,-0.0252 -2.18792,-0.21934 -0.18815,-0.15614 -1.88028,-2.10083 -3.76029,-4.32152 -1.88002,-2.22068 -3.50552,-4.03761 -3.61223,-4.03761 -0.10671,0 -0.22105,1.91562 -0.25408,4.25695 l -0.0601,4.25696 -1.99371,0.0629 c -1.36157,0.0429 -2.08026,-0.0238 -2.26669,-0.21009 z m 37.425377,-0.0187 c -0.0565,-0.15203 -0.12803,-2.91352 -0.15891,-6.13664 l -0.0561,-5.86021 -2.21141,-0.0549 c -3.43615,-0.0853 -3.235,0.056 -3.15977,-2.21818 l 0.0638,-1.92863 7.62934,0 7.62934,0 0.0648,1.86075 c 0.0467,1.33937 -0.0153,1.91158 -0.22114,2.04216 -0.15728,0.0998 -1.35573,0.18293 -2.66322,0.1848 l -2.37727,0.004 0,5.92657 c 0,4.31469 -0.0721,5.99874 -0.26535,6.19192 -0.3729,0.3729 -4.13498,0.36317 -4.27407,-0.0109 z m 1.55405,-20.86927 c -3.4219,-0.86348 -3.64882,-1.06042 -3.64882,-3.16669 0,-0.85212 0.10533,-1.60001 0.23673,-1.68123 0.1302,-0.0805 0.87954,0.17016 1.66521,0.55693 1.57897,0.77733 3.52038,0.99479 4.15788,0.46571 0.46878,-0.38906 0.44992,-1.41355 -0.0338,-1.83263 -0.21284,-0.18444 -1.13335,-0.72161 -2.04555,-1.19372 -3.04495,-1.57589 -4.20852,-3.32649 -3.90642,-5.87723 0.25624,-2.16357 1.67152,-3.53614 4.11471,-3.9905 1.52476,-0.28356 3.65779,0.006 5.26493,0.71599 l 0.93985,0.41491 0,1.89213 c 0,1.04066 -0.0625,1.89213 -0.13892,1.89213 -0.0764,0 -0.67326,-0.30572 -1.32631,-0.67935 -1.57521,-0.90124 -3.28534,-1.10122 -4.05882,-0.47463 -0.92903,0.75262 -0.46102,1.46906 1.76467,2.70149 2.32946,1.28989 3.86551,2.63074 4.2102,3.67517 0.14375,0.4355 0.22091,1.42679 0.1715,2.20283 -0.17464,2.74263 -2.03144,4.31672 -5.22564,4.43003 -0.93454,0.0332 -1.8982,0.01 -2.14145,-0.0514 z m -99.962134,-0.35323 c -0.06027,-0.15705 -0.08341,-3.86754 -0.05141,-8.24553 l 0.05813,-7.95999 4.643945,2.3e-4 c 4.331142,2.1e-4 4.703535,0.0322 5.52851,0.47603 1.136443,0.61127 1.742099,1.271 2.303393,2.50908 0.841839,1.85691 0.432023,4.24119 -0.947377,5.51178 -0.320117,0.29487 -0.582024,0.62411 -0.582024,0.73167 0,0.10751 0.289389,0.5629 0.643084,1.01187 0.635052,0.80616 2.674023,5.32345 2.674023,5.92429 0,0.24632 -0.47928,0.31001 -2.333261,0.31001 l -2.333255,0 -0.295648,-0.71872 c -0.16261,-0.39528 -0.60633,-1.46999 -0.986042,-2.38823 -0.959761,-2.32093 -1.672012,-3.12825 -2.793203,-3.16599 l -0.8782,-0.0296 -0.110569,3.09596 -0.110569,3.09597 -2.159963,0.0633 c -1.607774,0.0472 -2.18798,-0.01 -2.269546,-0.2222 z m 7.756665,-9.7824 c 0.700624,-0.70062 0.70648,-1.6748 0.01488,-2.47881 -0.463668,-0.53905 -0.68567,-0.61455 -1.82441,-0.62046 l -1.296509,-0.007 -0.06614,1.52604 c -0.03638,0.83932 -0.0146,1.6603 0.04832,1.82441 0.07715,0.20104 0.516775,0.29836 1.347757,0.29836 1.014539,0 1.329532,-0.0963 1.776063,-0.5428 z m 8.606118,9.77822 c -0.05938,-0.15475 -0.08181,-3.86336 -0.04984,-8.24135 l 0.05814,-7.95999 5.279806,-0.0594 c 3.709141,-0.0416 5.370239,0.0157 5.583789,0.19293 0.435086,0.3611 0.403498,2.49958 -0.04351,2.94658 -0.281535,0.28155 -0.913283,0.34752 -3.327653,0.34752 l -2.980153,0 0.06584,1.38213 0.06583,1.38212 3.050238,0.0615 3.050243,0.0615 -0.06486,1.59697 -0.06486,1.59696 -2.985397,0.11064 -2.98539,0.11052 0,1.65857 0,1.65855 3.271382,0.0612 3.271396,0.0613 -0.06486,1.5973 -0.06486,1.5973 -5.478683,0.0591 c -4.273764,0.0461 -5.502421,-0.002 -5.586642,-0.22219 z m 12.425199,0.10594 c -0.147769,-0.2391 6.217193,-16.02592 6.548023,-16.24089 0.150855,-0.098 1.319179,-0.15305 2.596265,-0.12229 l 2.321975,0.0559 3.241029,8.0711 c 1.782565,4.4391 3.194762,8.14597 3.138196,8.23749 -0.05659,0.0915 -1.040041,0.16637 -2.185514,0.16637 -2.344947,0 -2.445741,-0.0653 -2.994122,-1.93761 -0.151824,-0.51836 -0.397998,-1.04368 -0.547048,-1.16738 -0.163244,-0.1355 -1.484229,-0.2004 -3.322242,-0.16322 l -3.051237,0.0618 -0.648252,1.60327 -0.64826,1.60327 -2.172584,0 c -1.194924,0 -2.219228,-0.0755 -2.276229,-0.1677 z m 10.815091,-6.30813 c 0.138266,-0.36031 -1.515413,-4.86111 -1.823828,-4.96392 -0.269183,-0.0898 -2.125087,4.73982 -1.937849,5.04279 0.203488,0.32923 3.632653,0.25735 3.761677,-0.0789 z m 9.044715,6.19832 c -0.05859,-0.15261 -0.0803,-3.85948 -0.0483,-8.23747 l 0.05816,-7.95999 3.538241,-0.0647 c 1.946036,-0.0356 4.185088,0.0432 4.975658,0.17514 4.04245,0.67458 6.49311,3.46668 6.79354,7.74007 0.2815,4.00426 -1.69382,7.33474 -4.92748,8.30792 -1.41883,0.42701 -10.22818,0.46013 -10.389759,0.0391 z m 8.841129,-3.83089 c 1.31575,-0.68569 1.78381,-1.76045 1.77418,-4.0738 -0.006,-1.49533 -0.10681,-2.06807 -0.49187,-2.80092 -0.78216,-1.48862 -1.61694,-1.94016 -3.75587,-2.03158 l -1.824405,-0.0779 0,4.62978 c 0,2.54638 0.07463,4.7053 0.16586,4.7976 0.329888,0.33381 3.240165,0.0217 4.132105,-0.44311 z m 9.07124,3.83089 c -0.0586,-0.15261 -0.0803,-3.85948 -0.0483,-8.23747 l 0.0581,-7.95999 5.52851,0 5.52851,0 0.0645,1.4579 c 0.0454,1.02394 -0.0249,1.53208 -0.23573,1.70714 -0.18069,0.14995 -1.48364,0.27393 -3.27113,0.31122 l -2.97081,0.062 -0.068,1.19534 c -0.046,0.80655 0.0261,1.25499 0.22114,1.37874 0.15905,0.10086 1.56233,0.18491 3.1184,0.18678 l 2.82923,0.004 -0.0649,1.60327 -0.0649,1.60327 -2.98538,0.11052 -2.98541,0.11052 -0.0661,1.52818 c -0.0464,1.07303 0.0193,1.58248 0.22114,1.71046 0.15803,0.10026 1.645,0.18379 3.30436,0.18565 3.3766,0.005 3.28548,-0.0423 3.28548,1.66195 0,1.76852 0.383317,1.65853 -5.78025,1.65853 -4.21668,0 -5.53681,-0.0652 -5.61826,-0.27748 z m 14.152977,0 c -0.0586,-0.15261 -0.0802,-3.85948 -0.0483,-8.23747 l 0.0582,-7.95999 3.64882,-0.0674 c 2.00685,-0.037 4.17061,-0.005 4.80836,0.0711 2.29114,0.27349 4.06265,2.10209 4.39054,4.53204 0.19174,1.42106 -0.22337,2.69612 -1.22878,3.77433 l -0.86555,0.92822 0.6471,0.80523 c 0.84653,1.05339 2.97073,5.97001 2.69741,6.24334 -0.11282,0.11282 -1.18084,0.17638 -2.37348,0.14133 -1.64856,-0.0485 -2.21306,-0.14326 -2.35456,-0.39543 -0.10231,-0.18244 -0.58313,-1.27708 -1.06839,-2.43255 -1.01411,-2.41468 -2.0621,-3.61182 -3.06095,-3.49654 l -0.59658,0.0689 -0.0543,2.65368 c -0.0804,3.93134 0.10461,3.64881 -2.38945,3.64881 -1.48314,0 -2.13496,-0.0818 -2.21004,-0.27749 z m 7.66489,-9.65021 c 0.38988,-0.3157 0.51702,-0.64176 0.51702,-1.32572 0,-1.32524 -0.61215,-1.84923 -2.30331,-1.97156 l -1.33543,-0.0965 0,1.90628 0,1.90627 1.30233,0 c 0.94839,0 1.44287,-0.11378 1.81939,-0.41868 z M 71.649461,107.19069 c 0,-0.45864 1.203024,-2.24034 1.86349,-2.75986 1.979897,-1.5574 4.796812,-1.04799 6.301932,1.13964 1.27184,1.84855 1.39751,1.78537 -3.687331,1.85335 -3.600222,0.0481 -4.478091,0.002 -4.478091,-0.23313 z m -60.002742,-0.0847 c -0.31913,-0.31912 0.168053,-3.78001 0.591757,-4.20371 0.07099,-0.0709 1.351788,0.2757 2.846203,0.77045 4.58604,1.51825 5.915122,1.70129 12.33672,1.69892 5.027042,-0.001 6.071101,-0.0679 9.619604,-0.60869 5.032183,-0.76692 10.924612,-1.41136 15.510313,-1.69633 3.964565,-0.24638 6.259242,-0.0771 8.925691,0.65866 2.054248,0.56679 6.855357,2.83041 6.855357,3.23215 0,0.24568 -4.805031,0.29598 -28.269111,0.29598 -15.548007,0 -28.335451,-0.0664 -28.416534,-0.14743 z m 72.428894,-0.12934 c 0.10968,-0.38306 4.23299,-2.42055 6.07243,-3.00063 2.56807,-0.80983 4.05063,-1.00961 7.26426,-0.97888 3.945887,0.0378 9.100247,0.52629 16.364387,1.55107 5.40481,0.76249 6.08786,0.81115 11.38872,0.81131 6.25501,1.9e-4 8.24989,-0.27534 12.16272,-1.68 2.96688,-1.06505 2.91688,-1.08193 3.3593,1.13414 0.26695,1.33714 0.30665,1.95384 0.13878,2.15611 -0.34213,0.41226 -56.868627,0.4191 -56.750597,0.007 z m -17.372604,-2.9287 c -4.186022,-2.05351 -7.037608,-2.75661 -11.196793,-2.76073 -4.319633,-0.005 -11.011001,0.66513 -21.229464,2.12378 -3.524038,0.50303 -10.422923,0.50572 -13.378994,0.005 -2.471773,-0.41851 -5.494832,-1.2348 -7.063958,-1.90741 -1.244391,-0.53341 -1.267606,-0.35511 0.538258,-4.133352 l 1.286,-2.690572 -0.476113,-0.427521 C 14.920083,94.02201 13.412157,92.952828 11.831007,91.881196 10.24985,90.809564 8.732277,89.732407 8.458614,89.487523 7.503501,88.632855 8.057414,87.12912 9.327345,87.12912 c 0.348132,0 1.834217,0.884286 3.957263,2.354783 1.869883,1.295123 3.543433,2.364897 3.719003,2.377252 0.175576,0.01243 0.979833,-0.916456 1.787246,-2.064016 0.807411,-1.147573 1.592398,-2.127958 1.744422,-2.178628 0.152022,-0.05065 0.847463,0.404548 1.545427,1.011617 2.943374,2.56007 5.801757,4.184066 9.374548,5.326185 3.982881,1.273212 5.305828,1.419134 13.325664,1.469906 10.104797,0.06395 13.735357,0.626398 18.354642,2.843515 1.777386,0.8531 5.347214,3.377936 5.110578,3.614576 -0.05074,0.0508 -1.121863,-0.45699 -2.380274,-1.12829 -6.385643,-3.406422 -13.719119,-4.505117 -23.738634,-3.556506 -9.179594,0.869087 -16.732021,0.20251 -21.191072,-1.870351 -1.319657,-0.613452 -1.849322,-0.958034 -3.552632,-2.311193 -0.657028,-0.521946 -0.85791,-0.58593 -1.130235,-0.359917 -0.182155,0.15117 -0.331191,0.452485 -0.331191,0.669569 0,0.973514 3.911902,3.579796 6.759873,4.503744 4.260056,1.382044 11.075427,1.792565 18.782656,1.131357 5.304728,-0.455103 11.40369,-0.368025 14.59444,0.208361 3.083418,0.557009 6.194568,1.592416 8.704809,2.897036 2.332933,1.21246 4.122735,2.41968 4.326276,2.91807 0.06208,0.15204 0.09113,0.26836 0.06451,0.2585 -0.02659,-0.01 -1.129849,-0.54849 -2.451687,-1.19693 z m 16.798474,0.74569 c 1.82012,-2.02709 7.35377,-4.53061 12.22961,-5.532909 3.11756,-0.640866 9.821507,-0.787656 14.877347,-0.32576 11.58253,1.058166 19.48556,-0.159845 24.24337,-3.736347 0.72641,-0.546066 1.51087,-0.992843 1.74323,-0.992843 0.57314,0 2.59058,-1.425613 3.83355,-2.70896 0.55955,-0.577738 1.08745,-1.050421 1.17311,-1.050421 0.32121,0 1.03218,1.463475 1.03299,2.1263 8.7e-4,0.911726 -0.61575,1.65288 -2.59205,3.114424 -0.90064,0.666035 -1.68683,1.339501 -1.7471,1.496571 -0.0602,0.15707 0.21395,1.056333 0.60938,1.998356 0.85261,2.031199 0.8831,1.981949 -1.77464,2.865439 -5.24859,1.74471 -11.98363,2.28523 -18.1568,1.45718 -20.630767,-2.76736 -24.420017,-2.87669 -29.979837,-0.8649 -1.0085,0.36491 -2.69048,1.10439 -3.73773,1.64326 -1.04725,0.53888 -1.9652,0.97978 -2.0399,0.97978 -0.0747,0 0.0538,-0.21112 0.28547,-0.46917 z m 1.19526,-3.38813 c 1.55123,-1.721132 5.12798,-3.688394 8.40332,-4.621935 3.68453,-1.050155 6.63685,-1.343385 13.047287,-1.295835 3.22312,0.02389 6.95487,-0.06552 8.29277,-0.198877 3.43234,-0.34194 6.99388,-1.293326 9.72441,-2.597667 2.614,-1.248683 3.75075,-1.987484 5.88717,-3.82626 0.82652,-0.711353 1.57734,-1.293356 1.66852,-1.293356 0.0912,0 0.42748,0.250725 0.74733,0.557172 l 0.58156,0.557154 1.49316,-1.130342 c 1.54012,-1.165907 2.31267,-1.496937 3.17287,-1.359543 0.70393,0.112439 0.62818,0.40696 -0.46402,1.804076 -0.52886,0.676519 -1.08783,1.478822 -1.24215,1.782887 -0.15431,0.304066 -0.49061,0.71963 -0.74732,0.923479 -0.43419,0.344799 -0.44571,0.428787 -0.16517,1.204606 0.30143,0.833602 0.30119,0.83429 -0.5578,1.561484 -2.04788,1.733696 -5.62185,3.102034 -9.7276,3.724342 -3.12739,0.474022 -9.5984,0.480187 -14.52098,0.01387 -10.26233,-0.972211 -17.526217,0.161269 -24.245027,3.783295 -1.71224,0.92304 -1.84624,0.96393 -1.34833,0.4115 z m -8.18219,-0.51058 c 0,-1.256485 4.27104,-43.217124 4.51056,-44.313801 0.11048,-0.505878 -0.23441,-1.020102 -0.49722,-0.741338 -0.11372,0.120608 -0.51958,2.997959 -0.90193,6.394098 -1.41793,12.594666 -4.893885,37.989681 -5.21224,38.080221 -0.121631,0.0346 -0.718714,-0.647577 -1.326851,-1.515939 -3.300986,-4.713505 -8.901402,-8.820544 -14.429401,-10.581714 -1.306546,-0.416262 -1.60327,-0.595155 -1.60327,-0.96663 0,-0.250715 1.741484,-7.867951 3.869953,-16.927191 2.128477,-9.05924 3.86996,-16.60427 3.86996,-16.766728 0,-0.16246 -0.868506,-1.456949 -1.930011,-2.876634 C 57.148752,43.03543 48.449707,28.782836 49.036519,28.024028 c 0.115227,-0.148997 2.760643,-3.864582 5.878707,-8.256847 3.118074,-4.392264 5.806258,-8.099666 5.973748,-8.238671 0.22994,-0.19084 0.515251,-0.17803 1.164984,0.05226 1.757473,0.622967 15.594775,6.83661 16.055615,7.209777 0.73179,0.592567 0.65723,2.894079 -0.14701,4.53789 -0.75572,1.544631 -1.65313,2.228277 -3.534454,2.692535 -2.894533,0.714305 -6.308353,-0.193303 -8.524643,-2.266374 -0.613892,-0.574228 -1.166135,-0.994074 -1.227226,-0.93299 -0.06111,0.06108 0.04229,0.840052 0.229722,1.73105 0.189217,0.899504 0.256506,1.704272 0.151309,1.809474 -0.104211,0.104211 -0.678739,0.3752 -1.276729,0.602193 -0.597998,0.226994 -1.087259,0.536383 -1.087259,0.687537 0,0.151152 0.768862,0.751935 1.708571,1.335071 4.568709,2.8351 8.830433,6.803448 11.273725,10.497631 0.800414,1.210209 2.587914,4.538947 3.972204,7.397184 2.825,5.832927 2.78028,5.74964 3.08665,5.74964 0.25523,0 0.22684,-0.115842 -0.84003,-3.427666 -2.0052,-6.224707 -6.179627,-12.990905 -10.004574,-16.216153 -0.618704,-0.521705 -1.124923,-1.05587 -1.124923,-1.187034 0,-0.354549 2.951351,-0.03474 5.391377,0.584235 4.54085,1.151879 7.56651,2.785889 10.79131,5.827854 1.34845,1.271995 2.2837,1.997099 2.45229,1.901274 0.14988,-0.08518 1.98283,-1.234396 4.07322,-2.553756 2.09038,-1.319361 3.95625,-2.398835 4.14637,-2.398835 0.40683,0 0.41619,0.241734 0.12005,3.095963 -0.67082,6.465294 -2.89569,12.981014 -6.1817,18.103625 -0.64558,1.006387 -1.30149,2.200482 -1.45758,2.653554 -0.28503,0.827319 -0.24805,4.38992 0.25215,24.28691 l 0.15116,6.012818 -1.079,0.662667 c -3.13497,1.925347 -4.10211,2.592225 -5.45145,3.75897 -1.91349,1.65457 -3.8408,3.847605 -5.4046,6.14976 -1.4205,2.091236 -2.05395,2.402516 -2.05395,1.009346 z M 67.890077,99.386551 C 64.531296,96.742021 61.033526,95.244775 56.006384,94.299639 54.55723,94.027185 51.922637,93.891882 45.554903,93.762864 36.494055,93.579286 35.228526,93.439361 31.451184,92.203419 27.959881,91.061071 22.110547,87.32034 21.938333,86.119821 c -0.04452,-0.310464 0.615573,-1.23658 2.087564,-2.928813 1.183987,-1.361123 2.259676,-2.474774 2.390425,-2.474774 0.13075,0 1.480146,1.254602 2.998659,2.788002 1.518512,1.533408 3.2585,3.111604 3.866636,3.507099 2.646216,1.720964 7.716447,3.216895 14.238154,4.20087 9.235858,1.39347 12.878703,2.550924 17.606053,5.594066 1.768162,1.138209 4.97566,3.750799 4.97566,4.052819 0,0.28184 0.108868,0.35433 -2.211407,-1.472539 z m 15.809246,0.214744 c 1.5871,-1.525697 4.993,-3.79787 7.26933,-4.849606 3.63014,-1.677241 6.46034,-2.422486 12.573257,-3.310829 4.59916,-0.668362 8.20736,-1.458974 11.22992,-2.460637 3.67571,-1.218136 4.80123,-1.960893 8.05597,-5.316343 1.57253,-1.621213 2.98434,-2.947646 3.13733,-2.947646 0.24911,0 3.63049,3.7035 4.45123,4.875276 0.30078,0.429426 0.27626,0.521084 -0.30585,1.143137 -1.85691,1.984343 -5.88363,4.402124 -9.12813,5.480838 -3.68411,1.224889 -4.90639,1.360193 -13.95046,1.544254 -9.047537,0.184145 -10.675147,0.346536 -14.491287,1.445907 -2.77926,0.800662 -5.23144,2.041888 -7.53124,3.812119 -2.57963,1.985625 -2.93176,2.142465 -1.31007,0.58353 z M 70.579334,99.050149 C 65.560046,94.280418 59.550597,91.436167 51.938923,90.227687 50.312933,89.969531 47.738666,89.560603 46.218326,89.318965 41.345297,88.544437 37.54045,87.453803 34.8296,86.054468 33.606404,85.423053 32.714137,84.67481 30.576924,82.48824 c -1.487578,-1.521943 -2.706619,-2.936485 -2.708971,-3.143417 -0.0045,-0.414728 4.568723,-4.659922 4.90093,-4.54918 0.11402,0.03801 0.441189,0.644528 0.727025,1.347828 1.24919,3.073548 3.520115,5.977705 5.936975,7.592441 3.05424,2.040569 7.381888,3.559842 14.02755,4.924548 6.650097,1.36561 10.997096,3.447195 15.0663,7.214562 1.170948,1.084096 3.154263,3.390354 3.651624,4.246238 0.354649,0.61031 -0.269826,0.19199 -1.599023,-1.071111 z m 9.694609,1.145101 c 0,-0.441313 2.72773,-3.581619 4.26396,-4.908897 3.94822,-3.411203 7.95857,-5.29467 13.81196,-6.486801 9.178857,-1.869412 14.340097,-4.024743 17.079247,-7.132258 1.38359,-1.569669 3.05351,-4.204121 3.5816,-5.650327 0.25538,-0.69936 0.54987,-1.271551 0.65444,-1.271551 0.21894,0 3.25719,2.664112 4.37191,3.833526 l 0.75131,0.788209 -1.3535,1.526687 c -2.35288,2.65392 -4.38297,4.421262 -6.03307,5.252243 -3.21508,1.619084 -7.52708,2.712822 -14.7234,3.734575 -5.932707,0.842336 -9.107367,1.742745 -12.954547,3.674197 -2.57563,1.293084 -5.10904,3.022979 -7.44049,5.080589 -1.10518,0.975384 -2.00942,1.677298 -2.00942,1.559808 z M 7.677602,92.848918 C 7.060686,92.615593 0.915652,85.248012 0.268491,83.965782 -0.270979,82.896918 0.075598,81.986929 1.500573,80.73075 2.195596,80.118062 2.875117,79.615365 3.01062,79.613639 c 0.252808,-0.0035 0.527621,1.458586 0.527621,2.806537 0,0.966256 0.209153,1.343835 1.916393,3.459662 0.770393,0.954765 1.400713,1.928213 1.400713,2.163224 0,0.987704 0.663288,1.964741 1.96339,2.892116 0.73143,0.521742 1.335234,1.060833 1.34179,1.197983 0.03211,0.671922 -1.460853,1.102303 -2.482925,0.715757 z M 137.2301,91.281751 c -0.18932,-0.270318 -0.34424,-0.656032 -0.34424,-0.857129 0,-0.346271 6.39313,-8.531389 6.93256,-8.875742 0.4667,-0.297935 1.39783,-0.17409 1.7682,0.235163 0.46829,0.517458 0.46468,1.123119 -0.0109,1.813079 -0.68186,0.989413 -6.08263,7.617146 -6.43726,7.899699 -0.55723,0.443942 -1.52307,0.33511 -1.90843,-0.21507 z M 12.604997,87.863405 C 11.252418,86.907864 10.206135,85.776062 8.790328,83.73694 8.231784,82.932497 8.182191,82.690945 8.182191,80.775083 c 0,-1.147285 0.08836,-2.052818 0.196351,-2.012268 0.253807,0.09527 5.842958,6.99764 6.180976,7.633225 0.475389,0.893908 0.213975,2.541531 -0.395481,2.492605 -0.06689,-0.0048 -0.768461,-0.466734 -1.55904,-1.02524 z M 145.67619,86.317974 c -0.33449,-0.05641 -0.60815,-0.179199 -0.60815,-0.272782 0,-0.09359 0.37318,-0.648617 0.82929,-1.233389 l 0.82927,-1.063232 0.15364,-3.340587 c 0.0845,-1.837315 0.21434,-3.738634 0.28854,-4.22514 0.0983,-0.645044 -0.0185,-1.329964 -0.43106,-2.529457 -0.4382,-1.273607 -0.50332,-1.684892 -0.28853,-1.822085 0.15257,-0.09745 0.40993,-0.128475 0.57193,-0.06897 0.16198,0.05954 0.59256,0.108253 0.95685,0.108253 0.44464,0 0.8858,0.223462 1.34219,0.679847 L 150,73.23027 l -0.1557,5.309201 c -0.0908,3.1002 -0.26583,5.637852 -0.42042,6.099101 -0.45389,1.354297 -1.88201,1.994257 -3.74769,1.679382 z m -5.77883,-2.242392 c -0.13656,-0.220969 0.23247,-9.360716 0.42717,-10.579493 0.13646,-0.854137 0.60495,-1.317471 0.91966,-0.9095 0.11848,0.153533 0.58624,1.366992 1.03956,2.696572 0.76707,2.249725 0.81377,2.533545 0.67338,4.091104 -0.13397,1.486016 -0.24607,1.798424 -0.99989,2.786389 -1.10029,1.442013 -1.89535,2.181136 -2.05988,1.914928 z M 4.831544,83.535761 c -0.26971,-0.496576 -0.810702,-6.83431 -0.837088,-9.806471 -0.01544,-1.739504 0.31429,-2.300964 1.351333,-2.300964 1.15308,0 1.251126,0.374188 1.642307,6.267926 0.346279,5.217213 0.34491,5.489168 -0.02969,5.903119 -0.561273,0.620196 -1.775161,0.583893 -2.126835,-0.06365 z M 144.12399,76.901549 c -0.42211,-0.31955 -3.69988,-9.676769 -3.69988,-10.562283 0,-1.157077 1.35928,-1.733846 2.17165,-0.921461 0.36978,0.369758 3.8138,9.967004 3.80359,10.599179 -0.007,0.458145 -0.8547,1.160992 -1.39961,1.160992 -0.28081,0 -0.6749,-0.124387 -0.87575,-0.276427 z M 7.887334,75.48256 C 7.806254,75.40148 7.739357,74.779522 7.738673,74.100443 7.738112,73.421355 7.638577,72.509814 7.517725,72.074791 7.339787,71.434247 7.399145,70.945961 7.829894,69.506834 8.258167,68.075998 8.652916,67.346935 9.85624,65.764398 c 2.065381,-2.716258 2.053509,-2.704453 2.311084,-2.297128 0.115371,0.182443 0.211287,0.544259 0.213145,0.804034 0.0059,0.824345 -3.02929,10.479936 -3.435384,10.928675 -0.397703,0.439452 -0.794793,0.545539 -1.057751,0.282581 z M 1.370643,74.375501 C 0.575159,73.983468 0,73.086723 0,72.238514 0,71.515101 2.827394,62.166549 3.243597,61.513824 3.424573,61.230005 3.929819,60.848547 4.36637,60.666148 c 0.65951,-0.275564 0.956702,-0.286 1.757614,-0.06181 0.530141,0.148441 1.019008,0.359052 1.086372,0.468041 0.06736,0.109001 -0.482529,1.009161 -1.22197,2.000369 -1.153372,1.546068 -1.344442,1.936263 -1.344442,2.745482 0,0.84466 -0.347632,2.210805 -1.458427,5.731375 -0.193741,0.614049 -0.332819,1.459913 -0.309071,1.879697 0.08444,1.492214 -0.127549,1.625405 -1.505803,0.94616 z M 138.52147,69.34311 c -0.86813,-0.377909 -1.07659,-0.688303 -3.80744,-5.669526 -2.02896,-3.700954 -2.52951,-4.850253 -2.11235,-4.850253 0.23559,0 3.33968,1.759268 3.81517,2.162287 0.62405,0.528948 2.90154,4.641665 2.90154,5.239637 0,0.269435 0.18995,1.041968 0.42211,1.716731 0.309,0.898105 0.35639,1.292545 0.1769,1.472032 -0.31113,0.311134 -0.54567,0.299224 -1.39593,-0.07089 z M 6.458308,66.978982 C 6.188194,66.879052 5.855195,66.55149 5.718299,66.251044 5.398026,65.548111 5.531379,65.32409 9.251443,60.316024 c 2.791378,-3.757841 2.948106,-3.925244 3.674952,-3.925244 0.796072,0 1.447723,0.610274 1.447723,1.355788 0,0.538974 -6.495389,9.171062 -7.000304,9.303103 -0.233415,0.06103 -0.645398,0.02921 -0.915506,-0.0707 z M 144.09903,66.048001 c -0.20112,-0.526638 -0.66245,-1.241848 -1.02517,-1.589364 -0.36273,-0.347509 -0.6595,-0.729028 -0.6595,-0.847826 0,-0.118798 -0.54731,-1.195873 -1.21627,-2.393509 -0.66895,-1.197627 -1.21679,-2.350598 -1.21743,-2.562168 -0.002,-0.757293 -0.79583,-1.643331 -2.18959,-2.444792 -0.77921,-0.448084 -1.4189,-0.914207 -1.4215,-1.035829 -0.002,-0.121632 0.57162,-0.512714 1.27605,-0.869081 1.22943,-0.621947 1.31749,-0.635252 2.19549,-0.33171 0.8892,0.307411 0.99023,0.451877 3.62334,5.181311 3.00876,5.404144 3.16934,5.942979 2.13679,7.170092 -0.31488,0.374222 -0.69941,0.680396 -0.85452,0.680396 -0.1551,0 -0.44656,-0.430883 -0.64769,-0.95752 z M 12.736386,62.39526 c -0.06985,-0.112995 0.417069,-0.950416 1.082006,-1.860934 0.664942,-0.910512 1.299433,-1.891877 1.409986,-2.180806 0.409125,-1.069274 7.001202,-4.652834 7.914407,-4.302404 0.40514,0.155458 0.383939,1.676408 -0.03166,2.269724 -0.340313,0.48587 -8.916715,5.869562 -9.768831,6.132222 -0.263429,0.08117 -0.536097,0.05519 -0.605931,-0.05781 z M 132.46305,57.502521 c -4.82355,-2.796014 -5.21441,-3.154569 -4.69102,-4.303268 0.53669,-1.177923 1.06427,-1.02623 5.74885,1.652947 2.39806,1.371482 4.58401,2.694122 4.85767,2.939207 0.95887,0.858723 0.45085,2.369612 -0.78978,2.348853 -0.3413,-0.0062 -2.51372,-1.123668 -5.12572,-2.637739 z m -6.85535,1.096021 c -1.15545,-0.489827 -3.4227,-1.447078 -5.0383,-2.127239 -3.17643,-1.337244 -3.58618,-1.706505 -3.58618,-3.231849 0,-1.127792 0.38178,-1.361708 1.15737,-0.709089 0.44774,0.376742 0.91407,0.543316 1.52107,0.543316 0.48145,0 1.09577,0.142329 1.36516,0.316288 0.73188,0.472627 5.99457,2.557216 6.48094,2.567137 0.69119,0.01413 2.84791,1.413165 2.91894,1.893517 0.0936,0.633577 -0.87589,1.435805 -1.86714,1.544873 -0.642,0.07062 -1.36704,-0.125118 -2.95186,-0.796954 z M 8.398457,57.563759 C 7.675165,56.423247 7.574458,55.578796 8.052879,54.665966 c 0.209788,-0.400281 1.759595,-1.485353 4.700723,-3.291152 2.413266,-1.48169 4.675082,-2.803224 5.02625,-2.936738 0.752538,-0.286122 1.863788,0.0027 2.433322,0.631695 0.46527,0.514118 0.246758,0.708617 -1.529502,1.36148 -1.47492,0.542096 -2.164432,1.072779 -2.527866,1.945565 -0.160145,0.384598 -0.963651,1.026021 -2.335657,1.864527 -1.642329,1.003703 -2.355664,1.609268 -3.321313,2.819536 -0.676381,0.847721 -1.27749,1.541308 -1.335801,1.541308 -0.05831,0 -0.402373,-0.467291 -0.764578,-1.038428 z m 9.212483,-3.496262 c -0.536872,-0.536864 -0.647251,-1.194741 -0.291539,-1.737621 0.24509,-0.374056 1.628946,-0.97038 5.46151,-2.353413 4.851921,-1.750882 5.16519,-1.834561 5.716139,-1.526818 0.666531,0.372313 0.886535,1.410714 0.42679,2.014405 -0.299033,0.392653 -9.794528,3.936474 -10.547599,3.936474 -0.23776,0 -0.582142,-0.149861 -0.765301,-0.333027 z m 11.390543,-0.124726 c -0.710741,-0.284666 -1.801223,-1.077896 -1.801223,-1.310217 0,-0.104428 0.53878,-0.436541 1.197295,-0.738016 0.658511,-0.301475 1.316566,-0.771006 1.462353,-1.043406 0.696123,-1.300723 4.315919,-5.906973 4.993974,-6.354927 0.421138,-0.278214 1.035764,-0.896395 1.365844,-1.37373 0.698252,-1.009779 1.199103,-1.112997 1.559769,-0.321422 0.564893,1.239806 0.365359,1.684925 -2.540007,5.666273 -3.896835,5.340004 -3.788287,5.209332 -4.547263,5.473911 -0.802404,0.279713 -0.995758,0.279896 -1.690742,0.0017 z M 130.8045,52.17447 c -1.00207,-0.607675 -1.23007,-0.658791 -2.43254,-0.5454 -1.185,0.11174 -1.56327,0.03173 -3.53825,-0.748191 -1.21627,-0.480325 -2.37767,-0.92364 -2.58089,-0.985149 -0.51139,-0.154788 -2.23751,-2.749684 -2.08809,-3.139058 0.11475,-0.299165 0.65082,-0.416315 1.51021,-0.330046 0.3544,0.03557 9.10217,3.564484 9.91713,4.000633 0.40879,0.218781 1.09213,1.51503 1.09213,2.071703 0,0.53336 -0.65018,0.421126 -1.8797,-0.324492 z m -12.00646,-0.372348 c -0.74508,-0.6471 -6.01647,-8.926266 -6.01647,-9.449372 0,-0.909212 1.3387,-1.571421 2.12551,-1.05141 0.56482,0.373288 6.05668,8.953172 6.05668,9.462302 0,0.642838 -0.71504,1.425475 -1.30235,1.425475 -0.22977,0 -0.61831,-0.174151 -0.86337,-0.386995 z M 23.440875,48.233794 c 0,-0.294805 1.477126,-2.412612 4.252888,-6.097488 2.638896,-3.503191 3.04984,-3.830616 4.472669,-3.563691 1.015843,0.190576 1.09395,0.600679 0.318343,1.671369 -0.363299,0.501521 -0.744398,1.130425 -0.84689,1.39755 -0.102485,0.267132 -0.997543,1.58034 -1.989001,2.918246 -1.78815,2.412952 -1.816395,2.438244 -3.507773,3.140706 -1.701705,0.70677 -2.700236,0.903982 -2.700236,0.533308 z m 88.403435,-0.494301 c -0.41249,-0.156295 -1.2056,-1.108368 -2.48782,-2.986459 -1.03527,-1.516356 -1.8823,-2.851882 -1.8823,-2.967837 0,-0.115951 0.34159,-0.210822 0.75909,-0.210822 0.78135,0 0.80259,-0.02659 1.10427,-1.382126 0.0744,-0.334468 0.22924,-0.608136 0.34402,-0.608136 0.29422,0 1.86964,2.388425 2.18661,3.315013 0.14522,0.424535 0.77446,1.549355 1.39832,2.499596 0.9815,1.495013 1.09184,1.770149 0.81926,2.042713 -0.43144,0.43145 -1.51067,0.574964 -2.24145,0.298058 z m 5.06712,-5.38057 c -1.05949,-1.59205 -1.3725,-1.907684 -2.11133,-2.129045 -0.62153,-0.186208 -1.062,-0.535869 -1.55356,-1.233284 -0.37738,-0.535367 -0.68612,-1.069993 -0.68612,-1.188061 0,-0.118075 0.33611,-0.214678 0.74692,-0.214678 0.83318,0 1.16411,-0.286454 1.27745,-1.105699 0.042,-0.304069 0.19861,-0.552852 0.3479,-0.552852 0.14928,0 1.16929,1.323693 2.26668,2.941544 1.73821,2.562583 1.99526,3.062587 1.99526,3.881013 0,0.927625 -0.28971,1.4702 -0.78502,1.4702 -0.13986,0 -0.81404,-0.841112 -1.49818,-1.869138 z m -83.961527,0.984582 c -0.243253,-0.243253 -0.442277,-0.666761 -0.442277,-0.941121 0,-0.63159 3.550057,-5.803659 3.983578,-5.803659 0.177484,0 0.453862,0.273657 0.614171,0.608132 0.165591,0.3455 0.471634,0.608137 0.708637,0.608137 0.229433,0 0.468973,0.08383 0.532301,0.186298 0.137817,0.222995 -2.991276,4.844625 -3.654395,5.397497 -0.609573,0.508224 -1.197149,0.489584 -1.742015,-0.05527 z m 68.553507,-3.505248 c 0,-0.481193 0.43024,-1.83192 0.668,-2.097184 0.20628,-0.230121 2.41856,1.191857 2.42399,1.558052 0.005,0.267307 -1.92776,0.948416 -2.68985,0.948416 -0.24391,0 -0.40214,-0.161047 -0.40214,-0.409284 z M 87.264753,37.037068 c -1.04752,-1.157627 -1.90414,-2.22739 -1.90361,-2.377263 8.7e-4,-0.288167 10.87416,-12.309843 11.40676,-12.611689 0.51219,-0.290271 2.11705,0.578735 3.15205,1.70678 1.065227,1.160994 1.930577,2.865923 2.147107,4.230295 l 0.14211,0.895494 -2.840717,2.568636 c -1.56237,1.412747 -3.40362,3.022822 -4.09164,3.577948 -1.96823,1.588054 -5.55788,4.114567 -5.84595,4.114567 -0.14383,0 -1.11858,-0.947147 -2.16611,-2.104768 z M 43.845175,36.05916 c -0.514654,-0.08387 -0.989668,-0.206432 -1.05559,-0.272354 -0.186588,-0.186584 1.916961,-2.640551 2.186487,-2.550706 0.290169,0.09673 1.067545,2.555735 0.895799,2.833624 -0.135423,0.219129 -0.633207,0.21653 -2.026696,-0.0105 z m 37.256578,-2.878535 c -1.97378,-0.739611 -4.25761,-2.061693 -4.45641,-2.57976 -0.18875,-0.491842 0.0387,-0.815854 6.345,-9.039685 l 5.59607,-7.297632 1.47721,0.03374 c 1.05307,0.02408 1.68518,0.162463 2.20154,0.48198 0.89168,0.551757 1.95752,2.312783 2.59921,4.294545 l 0.48349,1.49319 -0.66805,0.828782 c -0.36742,0.455833 -2.88831,3.41613 -5.60198,6.578436 -5.62484,6.554778 -5.16999,6.257866 -7.97608,5.206374 z M 104.95816,31.92937 c -0.56222,-0.682923 -1.02221,-1.331217 -1.02221,-1.440664 0,-0.268199 1.34727,-1.075185 1.79676,-1.076218 0.22586,-3.64e-4 0.41069,0.255896 0.49757,0.690237 0.20474,1.023729 0.16754,3.068323 -0.0559,3.068323 -0.10678,0 -0.65405,-0.558756 -1.21627,-1.241678 z m 7.03167,-1.467293 c 0.19702,-2.688932 0.34527,-3.482826 0.65048,-3.483573 0.48908,-0.0011 2.13152,0.999075 2.13152,1.298126 0,0.422485 -2.44025,4.230996 -2.71097,4.230996 -0.14201,0 -0.16737,-0.730594 -0.0711,-2.045549 z m -75.168013,1.164156 c -0.256423,-0.414907 -1.218227,-3.393212 -1.218227,-3.772352 0,-0.407138 0.95151,-0.649517 2.543118,-0.6478 1.573049,0.0017 1.596013,0.162778 0.340637,2.389718 -1.184148,2.10061 -1.433949,2.405133 -1.665528,2.030434 z m 34.716877,-1.222685 c -4.263782,-1.168376 -6.41287,-1.945426 -6.41287,-2.318727 0,-0.277816 0.664712,-0.354639 4.091096,-0.472819 2.250099,-0.07761 4.737934,-0.251007 5.528514,-0.385325 0.790571,-0.13432 1.721859,-0.244969 2.069509,-0.245888 0.57069,-0.0017 0.61808,0.05422 0.4877,0.573749 -0.20044,0.7986 -1.846726,2.927573 -2.538482,3.28275 -0.503978,0.258764 -0.885498,0.20746 -3.225467,-0.43374 z M 42.901221,28.76699 c 0,-0.342031 1.708066,-3.714294 1.960245,-3.870151 0.174538,-0.107879 1.799137,1.463773 1.799137,1.740488 0,0.115407 -3.043369,2.104611 -3.470991,2.268708 -0.158619,0.06086 -0.288391,-0.0017 -0.288391,-0.139045 z m 36.488152,-6.398454 c 0,-0.46816 -0.0642,-1.610424 -0.14261,-2.538374 l -0.14262,-1.687178 -2.30932,-1.366765 c -2.544135,-1.505742 -3.011339,-1.881469 -2.852933,-2.294282 0.25028,-0.652201 5.523873,-7.8730492 5.894963,-8.0716505 0.579,-0.3098727 1.50652,-0.2709611 2.81685,0.1181586 1.41202,0.4193248 2.75936,1.7201115 3.75688,3.6270589 1.48628,2.841331 0.89469,4.275106 -4.42286,10.719235 -1.06427,1.289745 -2.08427,2.344988 -2.26669,2.344988 -0.23734,0 -0.33166,-0.242061 -0.33166,-0.851196 z M 68.111221,12.575898 C 65.982742,11.591305 64.107911,10.660116 63.944937,10.506584 63.697953,10.273915 63.712651,10.103206 64.033197,9.4812378 65.031834,7.543529 68.510651,2.7896777 70.364593,0.8292758 71.057387,0.0967047 71.271739,0 72.202772,0 c 1.486365,0 2.62862,0.3947158 3.634921,1.2560716 0.9432,0.8073393 2.22484,3.1215255 2.22484,4.0172503 0,0.6493545 -1.95946,4.1997149 -3.44911,6.2494691 -1.053677,1.449845 -2.291792,2.854471 -2.50977,2.847297 -0.0674,-0.0023 -1.863952,-0.809602 -3.992429,-1.79419 z"
     id="path2987"
     style="fill:#0e0e0e" />
</svg>
